<svg xmlns="http://www.w3.org/2000/svg" viewBox="0 0 250.52 20.12"><defs><linearGradient id="b" x1="1485.28" y1="737.6" x2="1485.66" y2="737.6" gradientTransform="matrix(0 53.96 53.96 0 -39796.6 -80152.13)" gradientUnits="userSpaceOnUse"><stop offset="0" stop-color="#557baa"/><stop offset=".31" stop-color="#5986af"/><stop offset=".87" stop-color="#66a4be"/><stop offset="1" stop-color="#6aadc2"/></linearGradient><linearGradient id="d" x1="1415.56" y1="723.77" x2="1415.94" y2="723.77" gradientTransform="matrix(0 15.63 15.63 0 -11292.91 -22123.94)" gradientUnits="userSpaceOnUse"><stop offset="0" stop-color="#adc295"/><stop offset=".27" stop-color="#b1c293"/><stop offset=".59" stop-color="#bfc38e"/><stop offset=".92" stop-color="#d6c687"/><stop offset="1" stop-color="#ddc785"/></linearGradient><linearGradient id="f" x1="1461.98" y1="709.92" x2="1462.36" y2="709.92" gradientTransform="matrix(0 26.46 26.46 0 -18777.93 -38669.96)" gradientUnits="userSpaceOnUse"><stop offset="0" stop-color="#90b6d0"/><stop offset=".11" stop-color="#90b6d0"/><stop offset=".14" stop-color="#90b6d0"/><stop offset=".49" stop-color="#89b5ca"/><stop offset=".92" stop-color="#7ab3be"/><stop offset="1" stop-color="#7ab3be"/></linearGradient><linearGradient id="h" x1="1487.59" y1="749.29" x2="1487.97" y2="749.29" gradientTransform="matrix(52.73 0 0 -52.73 -78436.68 39527.5)" gradientUnits="userSpaceOnUse"><stop offset="0" stop-color="#1d95d4"/><stop offset=".12" stop-color="#379fbe"/><stop offset=".36" stop-color="#7bb987"/><stop offset=".72" stop-color="#e8e330"/><stop offset=".76" stop-color="#f4e827"/><stop offset=".8" stop-color="#f1d723"/><stop offset=".89" stop-color="#ebad1b"/><stop offset="1" stop-color="#e1690d"/><stop offset="1" stop-color="#e1690d"/></linearGradient><linearGradient id="j" x1="1485.3" y1="737.64" x2="1485.68" y2="737.64" gradientTransform="matrix(0 54.01 54.01 0 -39833.66 -80212.16)" gradientUnits="userSpaceOnUse"><stop offset="0" stop-color="#a095c2"/><stop offset=".01" stop-color="#a499c4"/><stop offset=".12" stop-color="#c0b8d6"/><stop offset=".24" stop-color="#d7d2e5"/><stop offset=".36" stop-color="#e8e6f0"/><stop offset=".51" stop-color="#f5f4f8"/><stop offset=".69" stop-color="#fcfcfd"/><stop offset="1" stop-color="#fff"/></linearGradient><linearGradient id="l" x1="1487.59" y1="749.03" x2="1487.97" y2="749.03" gradientTransform="matrix(52.73 0 0 -52.73 -78442.14 39508.56)" gradientUnits="userSpaceOnUse"><stop offset="0" stop-color="#9cd2ed"/><stop offset=".04" stop-color="#a7c3e1"/><stop offset=".1" stop-color="#b0b7d8"/><stop offset=".18" stop-color="#b6b0d3"/><stop offset=".4" stop-color="#b8afd2"/><stop offset="1" stop-color="#b8afd2"/></linearGradient><linearGradient id="n" x1="1487.1" y1="727.26" x2="1487.48" y2="727.26" gradientTransform="matrix(0 54.72 54.72 0 -39790.87 -81375.18)" gradientUnits="userSpaceOnUse"><stop offset="0" stop-color="#b7205e"/><stop offset=".05" stop-color="#962967"/><stop offset=".11" stop-color="#753270"/><stop offset=".17" stop-color="#5d3977"/><stop offset=".22" stop-color="#4e3d7b"/><stop offset=".27" stop-color="#4a3f7d"/><stop offset=".37" stop-color="#3a6394"/><stop offset=".49" stop-color="#2597b6"/><stop offset=".53" stop-color="#2896ac"/><stop offset=".59" stop-color="#309594"/><stop offset=".67" stop-color="#3d946c"/><stop offset=".74" stop-color="#4a9347"/><stop offset=".8" stop-color="#69a145"/><stop offset=".94" stop-color="#b9c540"/><stop offset="1" stop-color="#dfd63e"/></linearGradient><linearGradient id="p" x1="1426.43" y1="709.25" x2="1426.81" y2="709.25" gradientTransform="matrix(0 16.86 16.86 0 -11950.96 -24031.04)" gradientUnits="userSpaceOnUse"><stop offset="0" stop-color="#2291a9"/><stop offset=".36" stop-color="#2190a5"/><stop offset=".69" stop-color="#20909a"/><stop offset=".99" stop-color="#1e9088"/><stop offset="1" stop-color="#1e9088"/></linearGradient><linearGradient id="r" x1="1415.07" y1="786.01" x2="1415.45" y2="786.01" gradientTransform="matrix(14.01 0 0 -14.01 -19813.85 11028.65)" gradientUnits="userSpaceOnUse"><stop offset="0" stop-color="#67a6ae"/><stop offset=".35" stop-color="#6ba8aa"/><stop offset=".74" stop-color="#79ae9e"/><stop offset="1" stop-color="#86b594"/></linearGradient><linearGradient id="t" x1="1440.9" y1="771.53" x2="1441.28" y2="771.53" gradientTransform="matrix(19.12 0 0 -19.12 -27537.03 14757.83)" gradientUnits="userSpaceOnUse"><stop offset="0" stop-color="#4c943c"/><stop offset=".25" stop-color="#4c943c"/><stop offset=".45" stop-color="#819b37"/><stop offset=".63" stop-color="#aba133"/><stop offset=".77" stop-color="#c4a531"/><stop offset=".86" stop-color="#cea731"/><stop offset="1" stop-color="#cea731"/></linearGradient><linearGradient id="v" x1="1406.23" y1="699.18" x2="1406.61" y2="699.18" gradientTransform="matrix(0 13.61 13.61 0 -9502.37 -19142.7)" gradientUnits="userSpaceOnUse"><stop offset="0" stop-color="#649850"/><stop offset=".23" stop-color="#67994f"/><stop offset=".46" stop-color="#739e4c"/><stop offset=".68" stop-color="#87a647"/><stop offset=".91" stop-color="#a3b140"/><stop offset="1" stop-color="#b1b73d"/></linearGradient><linearGradient id="x" x1="1465.25" y1="689.64" x2="1465.63" y2="689.64" gradientTransform="matrix(0 23.15 23.15 0 -15951.64 -33916.62)" gradientUnits="userSpaceOnUse"><stop offset="0" stop-color="#d4b55c"/><stop offset=".17" stop-color="#d4b55c"/><stop offset=".62" stop-color="#da9441"/><stop offset=".78" stop-color="#d3b654"/><stop offset=".85" stop-color="#d1c55d"/><stop offset=".87" stop-color="#cfc665"/><stop offset=".95" stop-color="#cacb7d"/><stop offset="1" stop-color="#c9cd86"/></linearGradient><clipPath id="a"><path d="M10.33.22s-.62.19-1.4.68c-.78.49-.94.69-1.32.88-.29.14-.47.44-2.62.7-.1.18-.19.36-.27.55-.21.52-.59 1.33-.99 1.58-.39.24-2.05.81-3.02 2.02-.18.75-.25 1.55-.19 2.35.89-1.2 2.66-1.17 3.08-1.19h.04a6.967 6.967 0 0 1 6.62-4.77c.76 0 1.49.12 2.18.35.37-.6.72-1.09 1.06-1.48-.65-.53-1.35-1.06-2.02-1.42-.12-.07-.45-.19-.91-.29l-.24.06" style="fill:none"/></clipPath><clipPath id="c"><path d="M14.82.73c1.2.63 2.1 1.59 2.38 2.63.13.33.26.64.38.92.67.31 1.19.85 1.49 1.52.2.46.4 1.03.56 1.68.1-.24.21-.5.31-.77 1.29-3.41-1.02-4.54-2.17-5.42-.51-.39-1.14-.85-1.91-.85-.32 0-.67.08-1.05.28" style="fill:none"/></clipPath><clipPath id="e"><path d="M.02 10.82c.07 3.09 1.85 7.02 3.91 8.24.85.51 2.26.94 3.7.96-.63-.19-1.03-.64-1.3-1.14-1.63-.29-3.24-1.2-3.66-3.09-.22-.99-.37-1.65-.48-2.1C1.4 12.73.51 11.32.16 9.75c-.09.31-.14.67-.13 1.08" style="fill:none"/></clipPath><clipPath id="g"><path d="M7.62 20.02c.43.13.95.15 1.62 0 1.03-.24 1.76-.58 2.34-.95-.15-.07-.3-.13-.47-.18-.97.85-2.24 1.15-3.48 1.14" style="fill:none"/></clipPath><clipPath id="i"><path d="M4.56 2.52c-1.9.19-3.33 1.94-3.84 4.09.97-1.21 2.63-1.78 3.02-2.02.39-.24.78-1.06.99-1.58.08-.19.17-.37.27-.55-.14.02-.28.03-.43.05" style="fill:none"/></clipPath><clipPath id="k"><path d="M.15 9.74c.35 1.57 1.25 2.98 2.03 3.94-.31-1.23-.36-1-.88-1.97-.46-.86-.71-1.8-.77-2.75-.16.22-.29.48-.38.78" style="fill:none"/></clipPath><clipPath id="m"><path d="M3.61 7.78C3.2 7.8 1.42 7.76.53 8.97c.07.94.32 1.89.77 2.75.52.97.57.75.88 1.97.49.6.94 1.02 1.2 1.2 1.49 1.18 2.01 1.17 2.3 2.07.13.41.26 1.22.64 1.93.95.17 1.91.12 2.64-.06a3.74 3.74 0 0 1 2.15.06c.6-.53 1.08-1.27 1.36-2.27-.69.23-1.43.35-2.2.35a6.98 6.98 0 0 1-6.62-9.19h-.04" style="fill:none"/></clipPath><clipPath id="o"><path d="M2.66 15.78c.42 1.9 2.03 2.81 3.66 3.09-.38-.7-.51-1.51-.64-1.93-.29-.9-.81-.89-2.3-2.07-.25-.18-.7-.6-1.2-1.2.11.46.26 1.11.48 2.1" style="fill:none"/></clipPath><clipPath id="q"><path d="M8.96 18.81c-.73.18-1.68.23-2.64.06.27.5.67.94 1.3 1.14 1.25.01 2.52-.29 3.48-1.14-.34-.11-.73-.19-1.16-.19-.3 0-.63.04-.98.13" style="fill:none"/></clipPath><clipPath id="s"><path d="M12.45 3.35a6.984 6.984 0 0 1 4.7 7.81c.79-.73 1.61-1.7 2.4-3.47-.49-.75-1.19-1.65-1.96-3.41-.73-.33-1.16-.26-1.66-.48-.42-.18-1.35-1.06-2.42-1.94-.34.39-.69.88-1.06 1.48" style="fill:none"/></clipPath><clipPath id="u"><path d="M13.51 1.87c1.07.87 2 1.76 2.42 1.94.49.21.93.15 1.66.48a33.5 33.5 0 0 1-.38-.92c-.28-1.03-1.18-2-2.38-2.63-.41.22-.85.58-1.32 1.13" style="fill:none"/></clipPath><clipPath id="w"><path d="M17.15 11.16a6.994 6.994 0 0 1-4.68 5.44c-.28 1-.76 1.74-1.36 2.27.17.05.32.12.47.18 1.11-.69 1.68-1.47 2.84-1.81 1.15-.34 2.66-.13 3.59-1.17 2.08-2.46 2.22-5.65 1.75-8.05-.07-.11-.14-.23-.21-.34-.79 1.77-1.61 2.74-2.4 3.47" style="fill:none"/></clipPath></defs><path d="m34.04 11.47.3.45c.57-.38 1.05-.78 1.44-1.18v5.24h.54v-5.35c.24.24.51.5.92.84l.35-.42c-.55-.46-.84-.75-1.14-1.09 1.11-1.5 1.24-2.86 1.25-2.95l.02-.29h-1.39V4.81h-.54v1.91H34.2v.54h2.91c-.06.28-.18.72-.42 1.25-.38.81-1.14 1.98-2.64 2.96m3.87-6.28h7.04v.55h-7.04zm.76 4.25h5.51V6.72h-5.51v2.72Zm4.97-.54h-4.42V7.26h4.42V8.9Zm-5.59 7.08h6.76v-5.56h-6.76v5.56Zm.55-2.51h2.56v1.96h-2.56v-1.96Zm3.11 0h2.56v1.96h-2.56v-1.96Zm2.56-.54h-2.56v-1.96h2.56v1.96Zm-3.1 0h-2.56v-1.96h2.56v1.96Zm14.61.81h-.54v1.25H53.1V12.7h6.04l-.25 2.02c-.05.4-.37.71-.75.71h-1.17v.55h1.17c.65 0 1.21-.51 1.29-1.19l.33-2.63h-8.32v-1.09h8.63v-.55h-8.63V9.43h7.46V5.62h-4.09l.45-.95-.48-.23-.56 1.18h-3.31v7.08h1.66v2.29h-2.15v-1.25h-.55v1.79h5.93v-1.79ZM51.44 7.8h6.91v1.09h-6.91V7.8Zm6.91-.55h-6.91V6.16h6.91v1.09Zm6.25 4.35.21.62.31-.1c2.14-.72 3.96-1.91 5.37-3.06v6.34h.65V8.5c1.62-1.45 2.56-2.73 2.63-2.83l.19-.26-.53-.39-.19.26s-3.31 4.52-8.33 6.2l-.31.11Zm20.23-1.98c1.05-1.93 1.32-3.58 1.33-3.65l.05-.32-.65-.11-.05.33c0 .06-1.07 6.37-7.03 8.46l-.31.11.22.62.31-.11c3.31-1.16 5.16-3.54 6.13-5.33m22.04.33h8.28v.65h-8.28zm18.38-3.23c-1.43-.72-3.11-1.1-3.18-1.12l-.14.64s1.67.38 3.03 1.06l.29-.58Zm-1.04 3.05c-1.43-.72-3.11-1.1-3.18-1.12l-.14.64s1.67.38 3.02 1.06l.3-.58Zm-3 5.19c2.43-.32 5.73-1.31 7.69-4.25 1.17-1.77 1.29-3.39 1.29-3.46l-.65-.05s-.11 1.51-1.19 3.14c-1.44 2.16-3.93 3.53-7.22 3.97l.09.65Zm35.68-7.98s-.16 1.65-1.27 3.37c-1.49 2.28-3.89 3.62-7.13 3.96l.07.65c4.31-.46 6.53-2.59 7.62-4.29 1.2-1.85 1.36-3.56 1.36-3.64l-.65-.06Zm-14.17.79h-6.53v.66h5.88v2.61h-5.88v.66h5.88v2.61h-5.88v.66h6.53v-7.2zm9.21.56.36-.54-.27-.18c-1.68-1.1-3.34-1.55-3.41-1.56l-.32-.09-.17.63.31.09s1.63.44 3.22 1.48l.27.18Zm-51.15-.45-1.45-1.53-.47.45 1.45 1.53.47-.45zm-.893-2.172.47-.448 1.456 1.528-.47.448zM95.16 8.29c.17-.21.4-.32.66-.33.25 0 .5.09.67.28l5.26 5.54.47-.45-5.26-5.54c-.31-.33-.74-.5-1.17-.49-.44.02-.86.23-1.14.58l-2.85 3.5.51.41 2.85-3.51Zm88.29 1.6h8.28v.65h-8.28zm-14.29 3.81v.65h8.08V6.08h-8.08v.65h7.44v6.97h-7.44zm27.84.79-.3.13.25.6.3-.13c2.24-.93 3.87-2.46 5-3.92.66.52 2.5 2.03 3.72 3.81l.18.27.54-.37-.19-.27c-1.29-1.89-3.18-3.44-3.87-3.97.25-.36.48-.71.67-1.05 1.15-1.95 1.57-3.58 1.59-3.65l.1-.41h-7.58v.65h6.72c-.47 1.45-2.38 6.34-7.14 8.31m16.83-9.73h-.65v10.9h.65V9.09c.79.32 3.41 1.44 5.7 2.92l.36-.55c-2.75-1.79-5.98-3.04-6.06-3.08V4.76Zm30.58 5.19.36-.41c-.96-.83-1.87-2.18-2.08-2.49v-.41h2.38v-.55h-2.38V4.46h-.55v1.63h-2.18v.55h2.18v.44c-.12.29-.84 1.88-2.29 3.11l.36.41c.9-.77 1.53-1.66 1.93-2.33v3.27h.55V8c.42.57 1.05 1.37 1.72 1.95m5.63-5.05h-4.27v6.21h4.27V4.9Zm-3.73.54h3.18v1.31h-3.18V5.44Zm0 1.85h3.18v1.42h-3.18V7.29Zm0 1.96h3.18v1.31h-3.18V9.25Zm-6.37 5.97.39.38c1.07-1.13 1.5-2.89 1.52-2.96l-.53-.13s-.41 1.69-1.38 2.71m7.54-.31c-.06.26-.28.45-.54.45h-2.87c-.31 0-.56-.27-.56-.6v-2.4h-.54v2.4c0 .63.49 1.14 1.1 1.14h2.87c.51 0 .95-.36 1.07-.87l.26-1.09-.53-.13-.26 1.09Z"/><path d="m244.44 11.06-.33.43s1.37 1.07 2.01 2.11l.46-.29c-.69-1.12-2.07-2.2-2.13-2.25m4.14 1.1-.37.41s1.01.94 1.8 2.74l.49-.22c-.84-1.91-1.89-2.88-1.93-2.93m-20.39-4.43v-.54h-1.24V4.47h-.55v2.72h-2.07v.54h2c-.22.87-.88 3.25-1.93 4.46l.42.36c.71-.81 1.23-2.06 1.59-3.11v6.47h.55V9.85c.26.69.51 1.11.53 1.14l.47-.28s-.75-1.25-.97-2.97h1.22Zm6.62 2.61h-2.79v-.98h3.14v-.54h-1.38V7.73h.76v-.54h-.76V6.1h.76v-.55h-.76V4.46h-.54v1.09h-2.98V4.42h-.55v1.13h-.76v.55h.76v1.09h-.76v.54h.76v1.09h-1.38v.54h3.14v.98h-2.8v3.27h-.56v.54h.56v1.74h.54v-1.74h5.05v.81c0 .21-.15.38-.35.38h-.9v.54h.9c.48 0 .89-.42.89-.92v-.81h.55v-.54h-.55v-3.27Zm-4.56-4.25h2.98v1.09h-2.98V6.09Zm0 1.63h2.98v1.09h-2.98V7.72Zm4.01 4.25h-2.25v-1.09h2.25v1.09Zm-5.05-1.09h2.25v1.09h-2.25v-1.09Zm0 1.63h2.25v1.09h-2.25v-1.09Zm2.8 0h2.25v1.09h-2.25v-1.09Z"/><circle cx="163.06" cy="10.22" r=".55"/><g style="clip-path:url(#a)"><path transform="rotate(-67.07 6.99 4.557)" style="fill:url(#b)" d="M.39-3.16h13.19v15.44H.39z"/></g><g style="clip-path:url(#c)"><path transform="rotate(-57.16 18.026 3.964)" style="fill:url(#d)" d="M13.34-.63h9.38v9.2h-9.38z"/></g><g style="clip-path:url(#e)"><path transform="rotate(-36.48 3.809 14.88)" style="fill:url(#f)" d="M-2.3 8.49H9.93v12.79H-2.3z"/></g><path d="M.72 6.62c-.48.6-.79 1.35-.7 2.31.03.28.07.55.13.81.09-.3.22-.56.38-.78-.06-.8.01-1.6.19-2.35" style="fill:#bdd9e9"/><path d="M19.76 8.03c-.04-.19-.08-.37-.12-.55l-.09.21c.08.12.15.23.21.34" style="fill:#ded699"/><path d="M8.94.9c.78-.49 1.4-.68 1.4-.68l.24-.06C9.33-.1 7.12-.13 5.42 1.89c-.16.18-.29.38-.42.59 2.15-.25 2.33-.55 2.62-.7.39-.19.55-.38 1.32-.88" style="fill:#bdd9e9"/><g style="clip-path:url(#g)"><path style="fill:url(#h)" d="M7.62 18.88h3.95v1.29H7.62z"/></g><path d="M17.58 4.28c.78 1.76 1.47 2.65 1.96 3.41l.09-.21c-.16-.65-.35-1.22-.56-1.68-.3-.67-.82-1.21-1.49-1.52Z" style="fill:#d3b670"/><g style="clip-path:url(#i)"><path transform="rotate(-67.1 2.86 4.545)" style="fill:url(#j)" d="M.12 1.77H5.6v5.55H.12z"/></g><path d="M18 16.08c-.93 1.03-2.44.83-3.59 1.17-1.16.34-1.74 1.12-2.84 1.81.56.26.97.57 1.22.64.25.06 1.87.55 3.17-.57 1.3-1.13 3.31-3.25 4.02-6.84.48-2.42.31-3.32-.23-4.26.46 2.4.33 5.59-1.75 8.05" style="fill:#ded699"/><path d="M13.51 1.87c.47-.55.91-.91 1.32-1.13-1.24-.65-2.78-.94-4.26-.58.46.09.79.22.91.29.68.37 1.38.9 2.02 1.42" style="fill:#9dc1b3"/><g style="clip-path:url(#k)"><path style="fill:url(#l)" d="M.15 8.96h2.03v4.72H.15z"/></g><g style="clip-path:url(#m)"><path transform="rotate(-45.24 6.5 13.398)" style="fill:url(#n)" d="M-1.71 5.19h16.42v16.42H-1.71z"/></g><g style="clip-path:url(#o)"><path transform="rotate(-46.15 4.256 16.276)" style="fill:url(#p)" d="M.94 12.99h6.61v6.59H.94z"/></g><g style="clip-path:url(#q)"><path style="fill:url(#r)" d="M6.32 18.69h4.78v1.34H6.32z"/></g><g style="clip-path:url(#s)"><path style="fill:url(#t)" d="M12.45 1.87h7.1v9.3h-7.1z"/></g><g style="clip-path:url(#u)"><path transform="rotate(-45.35 15.542 2.501)" style="fill:url(#v)" d="M12.85-.19h5.39v5.4h-5.39z"/></g><g style="clip-path:url(#w)"><path transform="rotate(-20 15.653 13.373)" style="fill:url(#x)" d="M9.43 6.47h12.46v13.8H9.43z"/></g></svg>